HIERARCHY
ROOT Hips
{
  OFFSET 52.7994 84.4301 3.18491
  CHANNELS 6 Xposition Yposition Zposition Zrotation Xrotation Yrotation
  JOINT spine
  {
    OFFSET 0 5.95438 0.342407
    CHANNELS 3 Zrotation Xrotation Yrotation
    JOINT spine1
    {
      OFFSET 0 8.85602 0
      CHANNELS 3 Zrotation Xrotation Yrotation
      JOINT spine2
      {
        OFFSET 0 8.48567 0
        CHANNELS 3 Zrotation Xrotation Yrotation
        JOINT Neck
        {
          OFFSET 0 21.7863 1.0387
          CHANNELS 3 Zrotation Xrotation Yrotation
          JOINT Head
          {
            OFFSET 0 6.5822 0
            CHANNELS 3 Zrotation Xrotation Yrotation
            End Site
            {
              OFFSET 0 15.9326 -5.25436
            }
          }
        }
        JOINT RightShoulder
        {
          OFFSET -3.57307 9.16386 -0.497525
          CHANNELS 3 Zrotation Xrotation Yrotation
          JOINT RightArm
          {
            OFFSET 0 12.0192 0
            CHANNELS 3 Zrotation Xrotation Yrotation
            JOINT RightArmRoll
            {
              OFFSET 0 6.06755 0
              CHANNELS 3 Zrotation Xrotation Yrotation
              JOINT RightForeArm
              {
                OFFSET 0 17.6726 0
                CHANNELS 3 Zrotation Xrotation Yrotation
                JOINT RightForeArmRoll
                {
                  OFFSET 0 6.80872 0
                  CHANNELS 3 Zrotation Xrotation Yrotation
                  JOINT RightHand
                  {
                    OFFSET 0 13.6636 0
                    CHANNELS 3 Zrotation Xrotation Yrotation
                    End Site
                    {
                      OFFSET 0 0 0
                    }
                  }
                }
              }
            }
          }
        }
        JOINT LeftShoulder
        {
          OFFSET 3.57307 9.16386 -0.497525
          CHANNELS 3 Zrotation Xrotation Yrotation
          JOINT LeftArm
          {
            OFFSET 0 12.0192 0
            CHANNELS 3 Zrotation Xrotation Yrotation
            JOINT LeftArmRoll
            {
              OFFSET 0 6.06754 0
              CHANNELS 3 Zrotation Xrotation Yrotation
              JOINT LeftForeArm
              {
                OFFSET 0 17.6726 0
                CHANNELS 3 Zrotation Xrotation Yrotation
                JOINT LeftForeArmRoll
                {
                  OFFSET 0 6.80872 0
                  CHANNELS 3 Zrotation Xrotation Yrotation
                  JOINT LeftHand
                  {
                    OFFSET 0 13.6636 0
                    CHANNELS 3 Zrotation Xrotation Yrotation
                    End Site
                    {
                      OFFSET 0 0 0
                    }
                  }
                }
              }
            }
          }
        }
      }
    }
  }
  JOINT RightUpLeg
  {
    OFFSET -5.27774 -0.967797 -0.811858
    CHANNELS 3 Zrotation Xrotation Yrotation
    JOINT RightUpLegRoll
    {
      OFFSET 0 16.0214 0
      CHANNELS 3 Zrotation Xrotation Yrotation
      JOINT RightLeg
      {
        OFFSET 0 -19.8401 0
        CHANNELS 3 Zrotation Xrotation Yrotation
        JOINT RightLegRoll
        {
          OFFSET 0 19.905 0
          CHANNELS 3 Zrotation Xrotation Yrotation
          JOINT RightFoot
          {
            OFFSET 0 16.5675 0
            CHANNELS 3 Zrotation Xrotation Yrotation
            JOINT RightToeBase
            {
              OFFSET 0 13.8496 0
              CHANNELS 3 Zrotation Xrotation Yrotation
              End Site
              {
                OFFSET 0.00587034 6.70728 -0.773117
              }
            }
          }
        }
      }
    }
  }
  JOINT LeftUpLeg
  {
    OFFSET 5.27774 -0.967797 -0.811858
    CHANNELS 3 Zrotation Xrotation Yrotation
    JOINT LeftUpLegRoll
    {
      OFFSET 0 16.0215 0
      CHANNELS 3 Zrotation Xrotation Yrotation
      JOINT LeftLeg
      {
        OFFSET 0 19.84 0
        CHANNELS 3 Zrotation Xrotation Yrotation
        JOINT LeftLegRoll
        {
          OFFSET 0 20.089 0
          CHANNELS 3 Zrotation Xrotation Yrotation
          JOINT LeftFoot
          {
            OFFSET 0 16.3835 0
            CHANNELS 3 Zrotation Xrotation Yrotation
            JOINT LeftToeBase
            {
              OFFSET 0 13.8496 0
              CHANNELS 3 Zrotation Xrotation Yrotation
              End Site
              {
                OFFSET -0.0263083 6.70728 -0.773117
              }
            }
          }
        }
      }
    }
  }
}
MOTION
Frames: 10
Frame Time: 0.00208333
52.3952 84.323 2.58798 -1.36095 -5.79937 0.420211 0.0675547 -1.41217 0.00742581 0.134317 1.17847 0.00902286 0.134294 2.82354 0.00604351 2.36504 5.30971 1.68283 5.02866 10.0304 2.35203 21.7026 -12.7239 -9.43203 39.9671 32.308 52.6727 -3.18055e-015 1.11319e-014 1.59028e-014 -6.84933 67.2207 1.98548 -6.0929e-006 -7.88335e-007 -3 8.03007 -4.9514 0.697637 -30.6941 -9.45291 5.50518 -6.52477 49.4078 -75.3307 -5.29669e-031 -6.36111e-015 -4.77083e-015 4.58555 43.8693 0.491548 3.48962e-006 3.16873e-006 3.00001 -8.03007 -4.95136 -0.697616 -178.095 0.323428 1.54071 180 7.01532e-015 178.859 178.149 11.1557 179.789 3.03195e-006 -6.59374e-007 0.205446 -20.0682 69.6593 21.0083 8.13649 25.2327 -3.48773 -177.002 0.630224 -1.81067 4.54188e-006 -4.6773e-006 -1.10261 -3.0702 -12.5374 0.00179365 2.93514e-006 1.70658e-006 -0.201756 20.3701 70.0546 -21.4068 -8.13649 25.2327 3.48774 
52.3768 84.3267 2.59281 -1.37584 -5.78381 0.411409 0.0640689 -1.40573 0.00744796 0.12761 1.19137 0.00926645 0.127579 2.83644 0.00657592 2.4586 5.27284 1.65916 4.99594 10.0067 2.35511 21.5635 -12.7191 -9.43613 39.4587 32.2032 53.2217 -4.77083e-015 9.54166e-015 1.27222e-014 -6.90586 67.5021 2.04453 -6.0929e-006 -7.88335e-007 -3 8.03007 -4.9514 0.697637 -30.3591 -9.43499 5.48339 -6.16395 48.9115 -75.7118 -3.18055e-015 -7.95139e-015 -6.36111e-015 4.59662 44.1047 0.478273 3.48962e-006 3.16873e-006 3.00001 -8.03007 -4.95136 -0.697616 -178.071 0.324548 1.52478 180 7.01532e-015 178.859 178.153 11.1264 179.789 3.03195e-006 -6.59373e-007 0.204473 -20.0584 69.6491 20.9983 8.13649 25.2327 -3.48773 -176.978 0.647009 -1.8247 4.54188e-006 -4.6773e-006 -1.10191 -3.07527 -12.5419 0.000972272 2.93514e-006 1.70658e-006 -0.202095 20.3758 70.0607 -21.4129 -8.13649 25.2327 3.48774 
52.39 84.3239 2.5957 -1.39027 -5.76856 0.4031 0.0610722 -1.39946 0.00748763 0.121856 1.20389 0.00950176 0.121818 2.84896 0.00708412 2.54493 5.23743 1.63651 4.96567 9.98389 2.35716 21.4233 -12.7153 -9.4414 38.9543 32.0995 53.7661 -7.95139e-015 -6.36111e-015 1.90833e-014 -6.96286 67.7787 2.10399 -6.0929e-006 -7.88335e-007 -3 8.03007 -4.9514 0.697637 -30.0428 -9.42294 5.46813 -5.79198 48.4186 -76.1041 -0 -6.36111e-015 -0 4.60798 44.344 0.464652 3.48962e-006 3.16873e-006 3.00001 -8.03007 -4.95136 -0.697616 -178.048 0.327452 1.50975 180 7.01532e-015 178.859 178.155 11.1012 179.789 3.03195e-006 -6.59374e-007 0.203623 -20.0505 69.6407 20.9902 8.13649 25.2327 -3.48773 -176.956 0.663344 -1.83801 4.54188e-006 -4.6773e-006 -1.10126 -3.07991 -12.5463 0.000212401 2.93514e-006 1.70658e-006 -0.202413 20.3816 70.0672 -21.4193 -8.13649 25.2327 3.48774 
52.387 84.3216 2.59584 -1.40419 -5.75362 0.395277 0.0586874 -1.39343 0.00755152 0.117282 1.21595 0.00973172 0.117237 2.86102 0.00756483 2.62215 5.20317 1.61519 4.93883 9.96264 2.35789 21.2791 -12.7135 -9.44885 38.4565 31.9989 54.3029 -7.95139e-015 -4.77083e-015 3.18055e-015 -7.02038 68.0506 2.16386 -6.0929e-006 -7.88335e-007 -3 8.03007 -4.9514 0.697637 -29.7482 -9.41833 5.46101 -5.40298 47.9316 -76.5121 1.90833e-014 -3.02153e-014 -9.54166e-015 4.61958 44.586 0.450743 3.48962e-006 3.16873e-006 3.00001 -8.03007 -4.95136 -0.697616 -178.026 0.332441 1.49572 180 7.01532e-015 178.859 178.157 11.0809 179.789 3.03195e-006 -6.59373e-007 0.202915 -20.0445 69.6343 20.9842 8.13649 25.2327 -3.48773 -176.934 0.679223 -1.85049 4.54188e-006 -4.6773e-006 -1.10065 -3.08406 -12.5505 -0.00047975 2.93514e-006 1.70658e-006 -0.202705 20.3878 70.0739 -21.426 -8.13649 25.2327 3.48774 
52.3741 84.324 2.59583 -1.41757 -5.73901 0.387933 0.0570376 -1.38768 0.00764632 0.114114 1.22746 0.00995925 0.114063 2.87252 0.00801476 2.68837 5.16975 1.59549 4.91642 9.94371 2.35705 21.1281 -12.7144 -9.45951 37.9684 31.9033 54.8293 -3.18055e-015 -1.27222e-014 2.8625e-014 -7.07844 68.3181 2.22418 -6.0929e-006 -7.88335e-007 -3 8.03007 -4.9514 0.697637 -29.4784 -9.42272 5.46363 -4.99124 47.4527 -76.9399 1.27222e-014 -9.54166e-015 -1.59028e-015 4.63134 44.8296 0.436608 3.48962e-006 3.16873e-006 3.00001 -8.03007 -4.95136 -0.697616 -178.005 0.339813 1.48277 180 7.01532e-015 178.859 178.158 11.0661 179.79 3.03195e-006 -6.59373e-007 0.202369 -20.0408 69.6302 20.9806 8.13649 25.2327 -3.48773 -176.914 0.69464 -1.86205 4.54188e-006 -4.6773e-006 -1.1001 -3.08766 -12.5546 -0.00109797 2.93514e-006 1.70658e-006 -0.202963 20.3943 70.0809 -21.433 -8.13649 25.2327 3.48774 
52.3614 84.327 2.59917 -1.43038 -5.72474 0.38106 0.0562455 -1.38225 0.0077787 0.11258 1.23832 0.0101872 0.112524 2.88339 0.00843062 2.74173 5.13684 1.57772 4.89943 9.92783 2.35437 20.9673 -12.7189 -9.47441 37.4924 31.8147 55.3424 -4.77083e-015 -4.77083e-015 6.36111e-015 -7.13708 68.5813 2.28497 -6.0929e-006 -7.88335e-007 -3 8.03007 -4.9514 0.697637 -29.2364 -9.43769 5.47762 -4.55115 46.9841 -77.3918 -7.94503e-031 -1.43125e-014 -3.18055e-015 4.64322 45.0734 0.42231 3.48962e-006 3.16873e-006 3.00001 -8.03007 -4.95136 -0.697616 -177.985 0.349866 1.47102 180 7.01532e-015 178.86 178.158 11.0573 179.79 3.03195e-006 -6.59373e-007 0.202005 -20.0396 69.6286 20.9796 8.13649 25.2327 -3.48773 -176.894 0.709588 -1.8726 4.54188e-006 -4.6773e-006 -1.09962 -3.09065 -12.5585 -0.00163603 2.93514e-006 1.70658e-006 -0.20318 20.4012 70.0883 -21.4404 -8.13649 25.2327 3.48774 
52.3615 84.3126 2.6035 -1.44235 -5.71048 0.37487 0.0562094 -1.37716 0.00794038 0.11251 1.2485 0.0104053 0.112451 2.89356 0.0088113 2.78382 5.10395 1.56163 4.88644 9.91523 2.35002 20.8061 -12.7249 -9.49076 37.0158 31.7318 55.8547 -1.59028e-015 9.54166e-015 6.36111e-015 -7.19554 68.8372 2.34548 -6.0929e-006 -7.88335e-007 -3 8.03007 -4.9514 0.697637 -29.0212 -9.46204 5.50191 -4.09131 46.5124 -77.8599 1.90833e-014 -1.59028e-015 -9.54166e-015 4.65537 45.3199 0.407715 3.48962e-006 3.16873e-006 3.00001 -8.03007 -4.95136 -0.697616 -177.967 0.363911 1.4608 180 7.01532e-015 178.86 178.156 11.0565 179.79 3.03195e-006 -6.59373e-007 0.201866 -20.0417 69.6305 20.9822 8.13649 25.2327 -3.48773 -176.877 0.724375 -1.88184 4.54188e-006 -4.6773e-006 -1.0992 -3.09293 -12.5623 -0.00207615 2.93514e-006 1.70658e-006 -0.203367 20.4087 70.0964 -21.4486 -8.13649 25.2327 3.48774 
52.3563 84.3141 2.60487 -1.45332 -5.696 0.369522 0.0567125 -1.37238 0.00811753 0.113518 1.25806 0.0106025 0.113457 2.90313 0.00915975 2.81801 5.07109 1.54671 4.87526 9.90528 2.34444 20.6549 -12.7301 -9.50535 36.5257 31.6508 56.3785 -1.59028e-015 -6.36111e-015 1.27222e-014 -7.25314 69.0833 2.40505 -6.0929e-006 -7.88335e-007 -3 8.03007 -4.9514 0.697637 -28.8288 -9.49311 5.53387 -3.62536 46.0247 -78.333 3.18055e-015 -6.36111e-015 -4.77083e-015 4.66801 45.5724 0.392641 3.48962e-006 3.16873e-006 3.00001 -8.03007 -4.95136 -0.697616 -177.951 0.382563 1.45228 180 7.01532e-015 178.86 178.153 11.0644 179.791 3.03195e-006 -6.59373e-007 0.201962 -20.0476 69.6361 20.9888 8.13649 25.2327 -3.48773 -176.86 0.739234 -1.88962 4.54188e-006 -4.6773e-006 -1.09882 -3.09448 -12.5658 -0.00241246 2.93514e-006 1.70658e-006 -0.203535 20.417 70.1052 -21.4575 -8.13649 25.2327 3.48774 
52.3546 84.327 2.60093 -1.46344 -5.68141 0.364939 0.0577054 -1.36786 0.00830856 0.115505 1.26709 0.0107807 0.115444 2.91216 0.00947884 2.84504 5.03868 1.53283 4.86573 9.89733 2.33777 20.5119 -12.7345 -9.51852 36.0252 31.5705 56.9109 7.95139e-015 -9.54166e-015 -9.54166e-015 -7.31 69.3208 2.46382 -6.0929e-006 -7.88335e-007 -3 8.03007 -4.9514 0.697637 -28.6572 -9.53021 5.57274 -3.15514 45.5242 -78.8091 -6.36111e-015 -1.11319e-014 1.59028e-015 4.68113 45.8306 0.377079 3.48962e-006 3.16873e-006 3.00001 -8.03007 -4.95136 -0.697616 -177.936 0.40508 1.44522 180 7.01532e-015 178.86 178.149 11.0799 179.791 3.03195e-006 -6.59373e-007 0.202261 -20.0567 69.645 20.9987 8.13649 25.2327 -3.48773 -176.846 0.754046 -1.89616 4.54188e-006 -4.6773e-006 -1.0985 -3.09541 -12.5691 -0.00265661 2.93514e-006 1.70658e-006 -0.203688 20.426 70.1147 -21.4671 -8.13649 25.2327 3.48774 
52.3571 84.3218 2.60469 -1.47284 -5.66683 0.361042 0.0591387 -1.36357 0.00851189 0.118374 1.27568 0.0109421 0.118312 2.92074 0.00977142 2.86566 5.00715 1.51987 4.85768 9.89076 2.33012 20.3756 -12.7384 -9.53064 35.517 31.4898 57.4492 -3.18055e-015 -2.06736e-014 1.27222e-014 -7.36631 69.5507 2.52198 -6.0929e-006 -7.88335e-007 -3 8.03007 -4.9514 0.697637 -28.5045 -9.57267 5.61776 -2.68235 45.0135 -79.2864 1.27222e-014 1.27222e-014 -4.77083e-015 4.69476 46.0946 0.361019 3.48962e-006 3.16873e-006 3.00001 -8.03007 -4.95136 -0.697616 -177.922 0.430717 1.43944 180 7.01532e-015 178.86 178.143 11.1016 179.792 3.03195e-006 -6.59373e-007 0.202731 -20.0684 69.6566 21.0115 8.13649 25.2327 -3.48773 -176.832 0.768693 -1.90165 4.54188e-006 -4.6773e-006 -1.09821 -3.09578 -12.5721 -0.00282029 2.93514e-006 1.70658e-006 -0.203825 20.4354 70.1246 -21.4773 -8.13649 25.2327 3.48774 
